<svg width="16" height="16" viewBox="0 0 16 16" fill="none" xmlns="http://www.w3.org/2000/svg">
<g clip-path="url(#clip0_349_1216)">
<path d="M8.66675 12C8.66675 12.3682 8.36829 12.6666 8.00012 12.6666C7.63196 12.6666 7.3335 12.3682 7.3335 12C7.3335 11.6318 7.63196 11.3334 8.00012 11.3334C8.36829 11.3334 8.66675 11.6318 8.66675 12Z" fill="#8A8A8A"/>
<path d="M8 16C3.58862 16 0 12.4114 0 8C0 3.58862 3.58862 0 8 0C12.4114 0 16 3.58862 16 8C16 12.4114 12.4114 16 8 16ZM8 1C4.14001 1 1 4.14001 1 8C1 11.86 4.14001 15 8 15C11.86 15 15 11.86 15 8C15 4.14001 11.86 1 8 1Z" fill="#8A8A8A"/>
<path d="M7.99988 9.83337C7.72388 9.83337 7.49988 9.60938 7.49988 9.33337V8.66003C7.49988 8.02539 7.90259 7.45667 8.50122 7.24536C9.29785 6.96472 9.83325 6.11597 9.83325 5.5C9.83325 4.48865 9.01123 3.66663 7.99988 3.66663C6.98853 3.66663 6.1665 4.48865 6.1665 5.5C6.1665 5.776 5.9425 6 5.6665 6C5.3905 6 5.1665 5.776 5.1665 5.5C5.1665 3.93799 6.43726 2.66663 7.99988 2.66663C9.5625 2.66663 10.8333 3.93799 10.8333 5.5C10.8333 6.61206 9.9552 7.79272 8.83386 8.18872C8.63391 8.25867 8.49988 8.44861 8.49988 8.66064V9.33337C8.49988 9.60938 8.27588 9.83337 7.99988 9.83337Z" fill="#8A8A8A"/>
</g>
<defs>
<clipPath id="clip0_349_1216">
<rect width="16" height="16" fill="white"/>
</clipPath>
</defs>
</svg>
