<svg width="24" height="24" viewBox="0 0 24 24" fill="none" xmlns="http://www.w3.org/2000/svg">
<g clip-path="url(#clip0_130_5294)">
<path d="M21.25 23.9999H2.75071C1.23373 23.9999 0.000732422 22.7669 0.000732422 21.25V16.7501C0.000732422 16.3361 0.33672 16.0001 0.750709 16.0001C1.1647 16.0001 1.50069 16.3361 1.50069 16.7501V21.25C1.50069 21.939 2.0617 22.5 2.75071 22.5H21.25C21.939 22.5 22.5 21.939 22.5 21.25V16.7501C22.5 16.3361 22.836 16.0001 23.25 16.0001C23.664 16.0001 24 16.3361 24 16.7501V21.25C24 22.7669 22.767 23.9999 21.25 23.9999Z" fill="#000639"/>
<path d="M12.0005 17.0003C11.5865 17.0003 11.2505 16.6643 11.2505 16.2503V0.750709C11.2505 0.33672 11.5865 0.000732422 12.0005 0.000732422C12.4145 0.000732422 12.7504 0.33672 12.7504 0.750709V16.2503C12.7504 16.6643 12.4145 17.0003 12.0005 17.0003Z" fill="#000639"/>
<path d="M16.0001 5.5005C15.8082 5.5005 15.6161 5.42763 15.4702 5.2806L12.0003 1.81177L8.53036 5.2806C8.2374 5.57356 7.76244 5.57356 7.46948 5.2806C7.17652 4.98764 7.17652 4.51268 7.46948 4.21953L11.4693 0.21972C11.7622 -0.0732399 12.2372 -0.0732399 12.5304 0.21972L16.5302 4.21953C16.8231 4.51268 16.8231 4.98764 16.5302 5.2806C16.3842 5.42763 16.1922 5.5005 16.0001 5.5005Z" fill="#000639"/>
</g>
<defs>
<clipPath id="clip0_130_5294">
<rect width="24" height="24" fill="white"/>
</clipPath>
</defs>
</svg>
